<?xml version="1.0" encoding="utf-8"?><svg version="1.1" id="HK_x5F_CR_x5F_25_x5F_LET-logo_x5F_CZ" xmlns="http://www.w3.org/2000/svg" xmlns:xlink="http://www.w3.org/1999/xlink" x="0px" y="0px" width="460.8px" height="130.7px" viewBox="0 0 460.8 130.7" style="enable-background:new 0 0 460.8 130.7;" xml:space="preserve"><style type="text/css">.st0{fill:#3C3C3B;}.st1{fill:#878787;}.st2{fill:#555454;}.st3{fill:none;stroke:#CD1719;stroke-width:0.9;}.st4{fill:#F9B233;}</style><path class="st0" d="M192.4,40.9h-2.2V24.1h2.3c0,1.5-0.1,3.5-0.1,6.8h7.7v-6.8h2.3c0,1.7-0.1,4.1-0.1,7.7v9.1h-2.2V33h-7.7V40.9z"/><path class="st0" d="M228.7,32.4c0-4.7-2.1-6.7-5.2-6.7c-3.1,0-5.2,2.1-5.2,6.8c0,4.7,2.1,6.7,5.2,6.7C226.6,39.3,228.7,37.1,228.7,32.4 M231.1,32.4c0,6-3.5,8.8-7.6,8.8c-4.1,0-7.6-2.7-7.6-8.7c0-6,3.5-8.8,7.6-8.8C227.6,23.7,231.1,26.4,231.1,32.4"/><path class="st0" d="M249.1,23.7c0.9,0,1.8,0.1,2.7,0.2v2.3c-0.9-0.3-1.9-0.5-2.8-0.5c-1.7,0-3,0.7-3,2.4c0,3.1,6.9,3.5,6.9,8.2c0,3.3-2.7,4.9-6.2,4.9c-1.1,0-2.1-0.1-3.2-0.3v-2.1c1.1,0.2,2.1,0.4,3,0.4c2.2,0,3.8-0.8,3.8-2.6c0-3.6-6.9-3.6-6.9-8.2C243.4,25.5,245.9,23.7,249.1,23.7"/><path class="st0" d="M268,31.6c0.6,0.1,1.3,0.2,1.9,0.2c2.1,0,3.6-1,3.6-3c0-2-1.4-3-3.3-3c-1.9,0-2,0.3-2,0.7C268,28.2,268,30.1,268,31.6 M270.3,33.7c-0.7,0-1.5-0.1-2.3-0.3v7.5h-2.2V24.1c1.8,0,2.7-0.2,4.4-0.2c3.5,0,5.8,1.7,5.8,4.9C275.9,31.9,273.5,33.7,270.3,33.7"/><path class="st0" d="M300.5,32.4c0-4.7-2.1-6.7-5.2-6.7c-3.1,0-5.2,2.1-5.2,6.8c0,4.7,2.1,6.7,5.2,6.7C298.4,39.3,300.5,37.1,300.5,32.4 M302.9,32.4c0,6-3.5,8.8-7.6,8.8c-4.1,0-7.6-2.7-7.6-8.7c0-6,3.5-8.8,7.6-8.8C299.4,23.7,302.9,26.4,302.9,32.4"/><path class="st0" d="M318.6,38.6c0,0.5,1.4,0.7,2.3,0.7c3.7,0,6-1.9,6-6.7c0-4.7-2.3-6.7-6-6.7c-1.7,0-2.2,0.2-2.2,0.7c0,1-0.1,2.8-0.1,5.1V38.6z M316.4,24.1c1.7,0,3.2-0.2,4.6-0.2c4.7,0,8.3,2.4,8.3,8.6c0,6.3-3.8,8.7-8.4,8.7c-1.6,0-2.6-0.3-4.5-0.3V24.1z"/><path class="st0" d="M346,23.1c1.2-1.1,2.3-2.2,3.2-3.4h2.6l-3.6,3.4H346z M350.2,33.8c-0.7-2.2-1.5-4.3-2.3-6.4c-0.8,2-1.7,4.4-2.4,6.4H350.2z M340.5,40.9c2.1-5.1,5.4-13.7,6.5-16.9h2l6.1,16.9h-2.6c-0.4-1.4-1.1-3.6-1.7-5.2h-6.1l-1.9,5.2H340.5z"/><path class="st0" d="M371,31.9c2.3,0,3.7-1,3.7-3.2c0-2-1.6-2.9-3.4-2.9c-1.7,0-1.8,0.3-1.8,0.6c-0.1,1.6-0.1,4.1-0.1,5.5H371z M373.6,19.7h1.9c-1,1.1-2.1,2.3-2.9,3.4h-1.9l-2.8-3.4h2.1c0.5,0.7,1.2,1.6,1.8,2.1L373.6,19.7z M379,40.9h-2.6l-4.2-6c-0.5-0.8-0.9-1-1.5-1h-1.4v7.1h-2.2V24.1c2,0,2.4-0.2,4.3-0.2c3.4,0,5.7,1.5,5.7,4.7c0,2.2-1.4,3.8-3.4,4.5L379,40.9z"/><path class="st0" d="M395.6,23.7c0.9,0,1.8,0.1,2.7,0.2v2.3c-0.9-0.3-1.9-0.5-2.8-0.5c-1.7,0-3,0.7-3,2.4c0,3.1,6.9,3.5,6.9,8.2c0,3.3-2.7,4.9-6.2,4.9c-1.1,0-2.1-0.1-3.2-0.3v-2.1c1.1,0.2,2.1,0.4,3,0.4c2.2,0,3.8-0.8,3.8-2.6c0-3.6-6.9-3.6-6.9-8.2C390,25.5,392.4,23.7,395.6,23.7"/><path class="st0" d="M424.3,40.9h-2.5l-6.2-7.6c-0.5-0.6-0.9-0.8-1.1-0.8v8.3h-2.2V24.1h2.3c-0.1,1.6-0.1,4.2-0.1,7.5c0.3,0,0.6-0.2,1.4-1.1l5.3-6.4h2.4l-6.2,7.7L424.3,40.9z"/><path class="st0" d="M439.1,23.1c1.2-1.1,2.3-2.2,3.2-3.4h2.6l-3.6,3.4H439.1z M443.3,33.8c-0.7-2.2-1.5-4.3-2.3-6.4c-0.8,2-1.7,4.4-2.4,6.4H443.3z M433.6,40.9c2.1-5.1,5.4-13.7,6.5-16.9h2l6.1,16.9h-2.6c-0.4-1.4-1.1-3.6-1.7-5.2h-6.1l-1.9,5.2H433.6z"/><path class="st1" d="M197.4,97.4h2.2c-0.9,0.9-1.8,1.9-2.4,2.8h-2.2l-2.4-2.8h2.4c0.4,0.6,0.8,1.2,1.3,1.6L197.4,97.4z M198.9,113.8c-0.8,0.4-1.9,0.6-2.7,0.6c-3.6,0-6.7-1.9-6.7-6.8c0-4.8,3.2-6.8,6.8-6.8c0.9,0,1.8,0.1,2.6,0.3v2.7c-0.8-0.3-1.6-0.5-2.6-0.5c-2.3,0-3.9,1.2-3.9,4.3c0,3.1,1.8,4.2,3.9,4.2c1,0,1.8-0.1,2.6-0.5V113.8z"/><path class="st1" d="M208.7,114.2v-13h7.7v2.4c-0.8-0.1-2.5-0.1-4.6-0.1c-0.2,0-0.3,0-0.3,0.4c0,0.6,0,1.7,0,2.4h4.5v2.3h-4.5v2.9c0,0.2,0.1,0.4,0.4,0.4c2.2,0,3.4,0,4.8-0.1v2.4H208.7z"/><path class="st1" d="M230.2,100.8c1,0,1.7,0.1,2.5,0.2v2.6c-0.7-0.3-1.6-0.5-2.6-0.5c-0.9,0-1.6,0.4-1.6,1.3c0,1.8,4.9,2.2,4.9,5.8c0,2.7-2.2,4.1-5,4.1c-0.9,0-1.9-0.1-2.8-0.3v-2.4c0.9,0.3,1.8,0.3,2.7,0.3c1.3,0,2.1-0.4,2.1-1.4c0-2.3-4.9-2.2-4.9-5.8C225.6,102.4,227.7,100.8,230.2,100.8"/><path class="st1" d="M254,114.2h-3l-4.5-5.8c-0.3-0.3-0.5-0.4-0.8-0.4v6.2h-2.7v-13h2.8c-0.1,1.8-0.1,3.7-0.1,5.6c0.3,0,0.6-0.1,1-0.7l3.8-4.9h2.9l-4.2,6L254,114.2z"/><path class="st1" d="M264.9,100.2c1-0.9,1.9-1.9,2.6-2.8h2.9l-3,2.8H264.9z M262.7,114.2v-13h7.7v2.4c-0.8-0.1-2.5-0.1-4.6-0.1c-0.2,0-0.3,0-0.3,0.4c0,0.6,0,1.7,0,2.4h4.5v2.3h-4.5v2.9c0,0.2,0.1,0.4,0.4,0.4c2.2,0,3.4,0,4.8-0.1v2.4H262.7z"/><path class="st1" d="M296.7,107.2c1.2,0,2.1-0.7,2.1-2c0-1.2-0.8-1.9-1.8-1.9c-0.8,0-1,0.1-1,0.3c-0.1,0.8-0.1,2.7-0.1,3.7H296.7z M303.2,114.2h-3.1l-3-3.9c-0.3-0.5-0.6-0.7-0.8-0.7h-0.5v4.6h-2.7v-13c1.8,0,2.1-0.2,3.9-0.2c2.7,0,4.7,1.4,4.7,4.1c0,1.4-0.8,3-2.5,3.5L303.2,114.2z"/><path class="st1" d="M312.2,114.2v-13h7.7v2.4c-0.8-0.1-2.5-0.1-4.6-0.1c-0.2,0-0.3,0-0.3,0.4c0,0.6,0,1.7,0,2.4h4.5v2.3h-4.5v2.9c0,0.2,0.1,0.4,0.4,0.4c2.2,0,3.4,0,4.8-0.1v2.4H312.2z"/><path class="st1" d="M332.7,107c0.3,0.1,0.7,0.1,1.1,0.1c1.3,0,2.2-0.6,2.2-1.9c0-1.2-0.7-1.9-1.9-1.9c-1.2,0-1.3,0.3-1.3,0.6C332.8,104.8,332.7,105.8,332.7,107 M334.5,109.4c-0.6,0-1.2-0.1-1.8-0.3v5H330v-13c1.4,0,2.9-0.2,4.2-0.2c3.1,0,4.8,1.6,4.8,4.2C339,108.1,336.8,109.4,334.5,109.4"/><path class="st1" d="M358.5,101.2c0,2-0.1,3.1-0.1,5.9v6.4c-2.5,0-2.8,0.9-5.1,0.9c-2.4,0-4.9-1.3-4.9-4.4v-8.9h2.8c0,0.8-0.1,4.1-0.1,5.9v2.9c0,1.5,1,2,2.5,2c1.5,0,2.2-0.6,2.2-1v-9.8H358.5z"/><path class="st1" d="M373.1,112c1.2,0,2.2-0.6,2.2-1.7c0-0.9-0.8-1.7-2.5-1.9c-0.3,0-0.5,0-0.8,0v3.3C372,111.9,372.4,112,373.1,112 M372,106.1h0.5c1.3,0,2.2-0.6,2.2-1.5c0-0.8-0.6-1.3-1.7-1.3c-0.5,0-0.8,0.1-0.8,0.2C372,104.1,372,105.2,372,106.1 M378.2,110.5c0,2.4-2,3.8-5.1,3.8c-1.3,0-2.1-0.1-3.9-0.1v-13c1.6,0,2.6-0.2,3.7-0.2c3,0,4.5,1.3,4.5,3.4c0,1.4-1,2.3-2.3,2.7C377,107.4,378.2,109,378.2,110.5"/><path class="st1" d="M390.9,101.2c0,1.9-0.1,3-0.1,5.9v4.5c0,0.2,0.1,0.3,0.3,0.3c2.4,0,3.6,0,4.5-0.1v2.4h-7.5v-13H390.9z"/><path class="st1" d="M407.7,101.2c-0.1,1.8-0.1,3.9-0.1,5.9v7.1h-2.7v-13H407.7z"/><path class="st1" d="M429.4,114.2h-3l-4.5-5.8c-0.3-0.3-0.5-0.4-0.8-0.4v6.2h-2.7v-13h2.8c-0.1,1.8-0.1,3.7-0.1,5.6c0.3,0,0.6-0.1,1-0.7l3.8-4.9h2.9l-4.2,6L429.4,114.2z"/><path class="st1" d="M440.6,114.2v-5.3c-1.4-2.3-3.3-5.4-4.6-7.7h3.2c0.7,1.5,1.5,2.9,2.4,4.3c0.3,0.5,0.3,0.5,0.4,0.5c0.1,0,0.1-0.1,0.3-0.5l2.5-4.4h3.3c-1.7,2.5-3.8,5.6-4.9,7.6v5.4H440.6z"/><path class="st0" d="M265.9,65.7c-10.2-3.2-24.4,0-28.6,8.4c-0.1,0.1,0,0.3,0.2,0.3c11.6,1.1,24.7-0.1,28.6-8.3C266.1,66,266.1,65.8,265.9,65.7z M199.5,79.9c-1.9,4.1-0.7,11.4-4.8,13.4c-0.1,0.1-0.4,0-0.5,0c-4.3-3.1-3.4-11-4-16.6c0-0.2-0.1-0.4-0.2-0.5c-1.9-2.1-3.5-4.4-3.6-8.3c0.4-1.5,2.1-1.8,3.5-2.3c0.2-0.1,0.3-0.2,0.3-0.4c0.8-6.9,1.1-14.3,0.5-19.8c0-0.1,0.1-0.3,0.3-0.4c8.1-1.3,10.7,6,10.1,14.8c0,0.1,0.1,0.4,0.4,0.3c6.7-2.2,20.9-11.5,22.8,0.3c0,0.2-0.1,0.4-0.2,0.5c-6.6,4.1-14.7,6.6-21.8,10.2c-0.1,0.1-0.1,0.2,0,0.2c9.4,2.4,17.6,3.5,28.4,4.2c0.2,0,0.2-0.1,0.2-0.3c-4.8-12.2,13.5-23.2,28.1-19.2c1.6,0.4,2.6,2,4.3,2.9c6.4,3.1,11.2,5.2,11.4,12.1c0,0.2,0,0.4-0.1,0.6c-4.3,12.2-29,17.1-41,8.9c-0.1-0.1-0.4-0.1-0.5-0.1c-9.9,4.1-23.6,0.4-33.1-0.6C199.8,79.6,199.6,79.7,199.5,79.9z"/><path class="st0" d="M379.1,63.5c3.4,0,8.8-1.4,11.8-3.2c0.1-0.1,0.1-0.2,0-0.2c-4.1-0.8-9.9,0.3-11.9,3.1C378.9,63.4,379,63.5,379.1,63.5z M425.7,64.8c-0.7,1.4-1.8,2.4-2.6,3.7c-0.1,0.1,0,0.2,0.2,0.2c1.7-0.3,4.1,0.1,4.8-1.1c0.1-0.1,0-0.3-0.1-0.4c-0.8-0.7-0.9-2-1.9-2.5C426,64.5,425.8,64.6,425.7,64.8z M442.5,77.1c0.4,3,5.2,8.9,2.5,12.3c-0.1,0.1-0.3,0.3-0.5,0.3c-2.2,0.4-3.5-1.9-5.6-2.8c-0.2-0.1-0.2-0.2-0.1-0.3c2.6-2.7-2-6.3-3.4-9c-0.1-0.1-0.3-0.2-0.4-0.2c-10.5,1.5-21.5-0.4-26.1,6.8c-0.1,0.1-0.3,0.3-0.5,0.2c-1.6-0.2-1.7-2-2.8-2.7c-0.1-0.1-0.4-0.1-0.6-0.1c-9.8,0.9-18.2,1.3-27-0.9c-0.2,0-0.4,0-0.5,0.2c-1.8,2.5,0.1,6.3-3.3,7.3c-0.2,0-0.4,0-0.5-0.2c-6.7-7.8-3.5-17.3-1.2-27.8c0.3-1.6,0.7,0.1,1.9-0.5c1-1.2-1.1-2-0.5-4.3c4.1-6.8,31.7-2.6,29.9,5.7c-0.8,4-15.8,6.9-20,8.5c-1.4,0.6-2.8,2.1-4.5,2.8c-0.2,0.1-0.2,0.1,0,0.2c6.8,2.1,16.8,1.1,25.5,1.3c0.2,0,0.4-0.1,0.5-0.2c5.2-6.9,10.2-13.9,15.3-20.9c0.1-0.1,0.2-0.4,0.2-0.5c-0.2-1.6-1.6-2-1.9-3.7c0-0.2,0.1-0.3,0.3-0.3c7-0.4,13.2,3.6,10.7,9.7c-0.1,0.2-0.1,0.4,0,0.6c1.1,3.4,3.6,5.4,5,8.5c0.1,0.2,0.3,0.3,0.4,0.3c8.1,0.1,16.4-1.3,24.1-0.1c0.2,0,0.4,0.2,0.4,0.3c3.6,7.8-10.9,8.6-17.4,9.2C442.6,76.8,442.5,77,442.5,77.1z"/><path class="st0" d="M327.4,73.4c11.4-0.4,24.1-1.5,31.8-6.9c0.1-0.1,0.1-0.2,0-0.3c-10.9-5.2-29-2-31.9,7C327.1,73.3,327.2,73.4,327.4,73.4z M368.4,69.2c0.5,2.4-0.2,5.1-4.3,7.6c-6.5,4-29.7,9.5-38.5,4.8c-4.3-2.3-7.5-8.9-6.7-14.2c0.9-5.4,9.7-11.4,16.6-12.4c12.3-1.8,23.1,2.6,29,8.1C365.9,64.2,368.1,67.6,368.4,69.2"/><path class="st0" d="M309.6,83.3c-3.8-2.3-3.9-8.3-4-13.3c0-0.2-0.1-0.2-0.3-0.2c-5.2,2.8-12.1,6.1-17.1,1c-0.1-0.1-0.3-0.1-0.3,0.1c-1.7,4.6-0.9,11.6-4.4,14.3c-0.1,0.1-0.4,0.1-0.5,0c-12.3-6-0.4-23.1-1.1-31.9c0-0.2,0.1-0.3,0.3-0.3c7.2,0,8.9,6,8.7,11.1c0,0.2,0.1,0.3,0.3,0.2c4.4-0.9,7.3-2.1,10.6-4.2c2.9-1.9,6-6,9-6.2c3.3-0.2,8.2,3.9,7.6,6.2c-0.7,2.7-3,7.1-4.3,11.9c-1.3,4.7-1,10.3-4,11.3C310,83.5,309.8,83.4,309.6,83.3z"/><g><g><path class="st0" d="M81.8,130.7l-47.1-15.5V68.5L17.1,55c0,0-23.4-11.4-15.5-37.2l48.5,38.5v49.2L81.8,130.7z"/><path class="st1" d="M30.2,112.2c0,0-10.9-4.6-10.2-20l10.2,5.6V112.2z"/><path class="st2" d="M30.2,90c0,0-13-5.5-12.1-24l12.1,6.7V90z"/><path class="st1" d="M14.7,82.3c0,0-14.4-6.1-13.4-26.5l13.4,7.5V82.3z"/></g><g><path class="st0" d="M92,130.7l47.1-15.5V68.5L156.7,55c0,0,23.4-11.4,15.5-37.2l-48.5,38.5v49.2L92,130.7z"/><path class="st1" d="M143.6,112.2c0,0,10.9-4.6,10.2-20l-10.2,5.6V112.2z"/><path class="st2" d="M143.6,90c0,0,13-5.5,12.1-24l-12.1,6.7V90z"/><path class="st1" d="M159.1,82.3c0,0,14.4-6.1,13.4-26.5l-13.4,7.5V82.3z"/></g><polygon class="st2" points="82.2,109.4 71.9,115.6 87,127.8 102.2,115.6 91.8,109.4 "/><g><path class="st2" d="M91,103.6l14.9,8.2l11.5-8.2V73.8c0,0-15.8-0.4-16.5,13.2c0,0,0.5,10.2-8.9,11.4L91,103.6z"/><path class="st2" d="M83.1,103.6l-14.9,8.2l-11.5-8.2V73.8c0,0,15.8-0.4,16.5,13.2c0,0-0.5,10.2,8.9,11.4L83.1,103.6z"/><path class="st1" d="M56.8,55.3v8.1c0,0,21.2-0.3,24.1,20.7h12.2c2.9-21,24.1-20.7,24.1-20.7v-8.1H56.8z"/></g><path class="st3" d="M34.7,68.5"/><path class="st4" d="M115.6,17.9c0,0-3.5-3.8-6.4,1c0,0-0.8-1.2-2.5-2.8c0.5-0.4,0.8-0.9,0.8-1.6c0-1.1-0.9-2-2-2c-0.7,0-1.3,0.4-1.7,0.9c-0.5-0.4-1.1-0.9-1.7-1.3c0.3-0.4,0.5-0.8,0.5-1.3c0-1.1-0.9-2-2-2c-0.8,0-1.5,0.5-1.8,1.1c-0.6-0.3-1.2-0.7-1.8-1c0.1-0.3,0.2-0.5,0.2-0.8c0-1.1-0.9-2-2-2c-0.8,0-1.5,0.5-1.8,1.2c-1.4-0.6-3-1.1-4.6-1.5c0.9-0.5,1.5-1.5,1.5-2.7C90.2,1.4,88.7,0,87,0c-1.7,0-3.2,1.4-3.2,3.1c0,1.1,0.6,2.1,1.5,2.7c-1.6,0.4-3.1,0.9-4.6,1.5c-0.3-0.7-1-1.2-1.8-1.2c-1.1,0-2,0.9-2,2c0,0.3,0.1,0.6,0.2,0.8c-0.6,0.3-1.2,0.7-1.8,1c-0.3-0.7-1-1.1-1.8-1.1c-1.1,0-2,0.9-2,2c0,0.5,0.2,0.9,0.5,1.3c-0.6,0.5-1.2,0.9-1.7,1.3c-0.4-0.6-1-0.9-1.7-0.9c-1.1,0-2,0.9-2,2c0,0.6,0.3,1.2,0.8,1.6c-1.7,1.7-2.5,2.8-2.5,2.8c-3-4.8-6.4-1-6.4-1c0.2-2.1-1.7-7.1-1.7-7.1v38.7h60.5V10.9C117.3,10.9,115.4,15.9,115.6,17.9z M87,9.6c1.7,0,3.2,1.4,3.2,3.2c0,1.7-1.4,3.2-3.2,3.2c-1.7,0-3.2-1.4-3.2-3.2C83.9,11,85.3,9.6,87,9.6z M63.4,46.3c-2.2,0-3.9-1.6-3.9-3.5c0-1.9,1.8-3.5,3.9-3.5c2.2,0,3.9,1.6,3.9,3.5C67.4,44.7,65.6,46.3,63.4,46.3z M78.7,37.1c-1.9,0.5-8.8,0.1-9,0.1l-0.8,0c0.4-0.5,0.7-1.5,0.7-2.7c0-1.7-0.6-3.1-1.4-3.1c-0.8,0-1.4,1.4-1.4,3.1c0,1.1,0.3,2.1,0.7,2.6c-2,0-8.3-0.5-9.2-5.1c0,0,0-2.8,1.3-1c0,0,0.9,2.9,1.9,2.4c0.9-0.5,1.1-0.6,2.3,0.3c0,0,1.6-2.5-2.1-2.7c0,0,2.6-14.9,19.3-21.5c0,0-2.1,3.3,1.5,7.9c0,0,0.4,0.9,0.5,1.6c-1.9-1.3-5.7-3.3-9.9-1.9c0,0-8.1,2.9-3.1,10.7c0,0,1.6,2.1,5.1,2c0,0,2.1,0.1,1.9,1.3c0,0,0.7,0.3-0.7,0c0,0-3.3-1.3-3.4,2.5c0,0,1.6-1,2.8-0.5c0,0,3.4,1.4,3.3-2c0,0-0.1-0.8-0.2-1.4c0,0-0.6-2.6,2.1-2.8c0,0,2.2,0.1,2.4,1.4c0,0,1.4,6.1-3.8,8.6L78.7,37.1z M87,47.1c-4.2,0-7.6-2-7.6-4.4c0-2.4,3.4-4.4,7.6-4.4c4.2,0,7.6,2,7.6,4.4C94.6,45.2,91.2,47.1,87,47.1z M110.7,46.3c-2.2,0-3.9-1.6-3.9-3.5c0-1.9,1.8-3.5,3.9-3.5c2.2,0,3.9,1.6,3.9,3.5C114.6,44.7,112.8,46.3,110.7,46.3z M106.6,37.2c0.4-0.5,0.7-1.5,0.7-2.6c0-1.7-0.6-3.1-1.4-3.1c-0.8,0-1.4,1.4-1.4,3.1c0,1.1,0.3,2.1,0.7,2.7l-0.8,0c-0.1,0-7.1,0.4-9-0.1l-0.7-0.3c-5.2-2.4-3.8-8.6-3.8-8.6c0.2-1.4,2.4-1.4,2.4-1.4c2.7,0.1,2.1,2.8,2.1,2.8c-0.1,0.6-0.2,1.4-0.2,1.4c-0.1,3.4,3.3,2,3.3,2c1.1-0.5,2.8,0.5,2.8,0.5c-0.1-3.8-3.4-2.5-3.4-2.5c-1.4,0.2-0.7,0-0.7,0c-0.2-1.2,1.9-1.3,1.9-1.3c3.5,0.1,5.1-2,5.1-2c5.1-7.8-3.1-10.7-3.1-10.7c-4.2-1.4-8,0.6-9.9,1.9c0.1-0.7,0.5-1.6,0.5-1.6c3.6-4.6,1.5-7.9,1.5-7.9C109.8,16,112.4,31,112.4,31c-3.7,0.2-2.1,2.7-2.1,2.7c1.3-0.9,1.4-0.8,2.3-0.3c1,0.5,1.9-2.4,1.9-2.4c1.3-1.7,1.3,1,1.3,1C115,36.7,108.7,37.1,106.6,37.2z"/></g></svg>