<svg id="Vrstva_1" data-name="Vrstva 1" xmlns="http://www.w3.org/2000/svg" viewBox="0 0 216 124"><defs><style>.cls-1{fill:#438e96;}.cls-2{fill:#87888a;}</style></defs><path class="cls-1" d="M126.83,51.64V45.71h-6.37l-5.2,6.76a11.87,11.87,0,0,1-5.55-3l-2.64,1a14.55,14.55,0,0,0,7.19,3.33l-10,13h-.15L87.71,45.94l18.53-23.53V45.27h5.43V39c2.88,1.15,6.81,1.89,10.82,2.8,5.91,1.27,7.66,3.52,7.66,5.69,0,1.67-1.2,3.14-3.32,4.16m2.1,1.48c3.87-1.24,6.74-3.41,7.13-6.46,0-4.3-5-6-10-7-7.19-1.44-12.3-2.62-13.1-5.73a2.77,2.77,0,0,1-.16-1c.16-3.35,4.88-5.44,9.19-5.44s7.18.57,10,3.19l2.39-.78c-3.11-2.78-7.34-3.52-12.37-3.52a24.14,24.14,0,0,0-10.34,2V19.46H105.3L89.07,40.53h-.15L72.37,19.46H66.16V45.27h3V22.73l18.19,23h-5.6v25.8h2.57V49l18.41,23.25h.07L121.4,48.66V71.51h5.43V54.36h9.61V78.42H142V54.36h11.58V53.12Zm-4.29-28.4,8.83-5.26h-2.79l-8.11,3.66-8.26-3.66h-2.64l8.9,5.26Z"/><polygon class="cls-2" points="19.56 84.91 20.86 84.91 24.3 92.3 27.79 84.91 28.98 84.91 28.98 93.06 28.18 93.06 28.21 85.61 24.76 93.06 23.82 93.06 20.28 85.61 20.36 93.06 19.56 93.06 19.56 84.91"/><rect class="cls-2" x="32.1" y="84.91" width="0.81" height="8.15"/><polygon class="cls-2" points="36.01 84.91 37.05 84.91 42.75 92.22 42.75 84.91 43.54 84.91 43.54 93.06 42.45 93.06 36.8 85.74 36.8 93.06 36.01 93.06 36.01 84.91"/><rect class="cls-2" x="46.65" y="84.91" width="0.81" height="8.15"/><path class="cls-2" d="M51.09,90.37v0c0,1.24,1,2.06,2.58,2.06s2.53-.68,2.53-1.67-.66-1.16-2-1.41l-1.74-.31c-1.3-.22-1.93-.9-1.93-2,0-1.4,1.15-2.35,3.1-2.35s3.16.94,3.21,2.5H56c-.11-1.14-.92-1.76-2.37-1.76s-2.29.63-2.29,1.57.66,1.15,2,1.38l1.54.28c1.48.26,2.15.89,2.15,2.1,0,1.55-1.21,2.5-3.31,2.5s-3.49-1.08-3.49-2.78v-.12Z"/><polygon class="cls-2" points="62.02 85.65 58.87 85.65 58.87 84.91 65.98 84.91 65.98 85.65 62.83 85.65 62.83 93.06 62.02 93.06 62.02 85.65"/><polygon class="cls-2" points="68.09 84.91 74.35 84.91 74.35 85.67 68.91 85.67 68.91 88.52 73.94 88.52 73.94 89.29 68.91 89.29 68.91 92.29 74.35 92.29 74.35 93.06 68.09 93.06 68.09 84.91"/><path class="cls-2" d="M77.79,85.66v3.13h3c1.5,0,2.19-.42,2.19-1.57s-.73-1.56-2.29-1.56ZM77,84.91h3.91c1.94,0,2.92.73,2.92,2.19a1.89,1.89,0,0,1-1.41,2c.93.15,1.14.58,1.25,1.55a6.2,6.2,0,0,0,.4,2.38h-1a12.21,12.21,0,0,1-.28-2.38c-.1-.84-.58-1.12-1.59-1.12H77.79v3.5H77Z"/><path class="cls-2" d="M87.16,90.37v0c0,1.24,1,2.06,2.59,2.06s2.52-.68,2.52-1.67-.65-1.16-2-1.41l-1.73-.31c-1.3-.22-1.93-.9-1.93-2,0-1.4,1.15-2.35,3.1-2.35s3.16.94,3.2,2.5h-.81c-.1-1.14-.91-1.76-2.37-1.76s-2.29.63-2.29,1.57.67,1.15,2,1.38l1.55.28c1.48.26,2.14.89,2.14,2.1,0,1.55-1.2,2.5-3.3,2.5s-3.49-1.08-3.49-2.78v-.12Z"/><polygon class="cls-2" points="98.1 85.65 94.95 85.65 94.95 84.91 102.06 84.91 102.06 85.65 98.91 85.65 98.91 93.06 98.1 93.06 98.1 85.65"/><polygon class="cls-2" points="103.27 84.91 104.16 84.91 107.43 92.36 110.7 84.91 111.59 84.91 107.94 93.06 106.91 93.06 103.27 84.91"/><path class="cls-2" d="M120.86,89a3.46,3.46,0,1,0-3.45,3.5,3.2,3.2,0,0,0,3.45-3.5m-3.45,4.29A4.29,4.29,0,1,1,121.69,89a4,4,0,0,1-4.28,4.29"/><path class="cls-2" d="M133.34,82.41h.87l-1.57,1.67h-.93l-1.57-1.67H131l1.17,1.21Zm-3.69,8v0c0,1.24,1,2.06,2.58,2.06s2.53-.68,2.53-1.67-.66-1.16-2-1.41L131,89.08c-1.3-.22-1.93-.9-1.93-2,0-1.4,1.15-2.35,3.11-2.35s3.15.94,3.2,2.5h-.81c-.11-1.14-.92-1.76-2.37-1.76s-2.29.63-2.29,1.57.66,1.15,2,1.38l1.54.28c1.48.26,2.15.89,2.15,2.1,0,1.55-1.21,2.5-3.31,2.5s-3.48-1.08-3.48-2.78v-.12Z"/><polygon class="cls-2" points="138.37 84.91 139.18 84.91 139.18 89.37 144.23 84.91 145.35 84.91 141.52 88.32 145.35 93.06 144.32 93.06 140.91 88.85 139.18 90.36 139.18 93.06 138.37 93.06 138.37 84.91"/><path class="cls-2" d="M154.46,89a3.45,3.45,0,1,0-3.45,3.5,3.2,3.2,0,0,0,3.45-3.5M151,93.27A4.29,4.29,0,1,1,155.3,89,4,4,0,0,1,151,93.27"/><polygon class="cls-2" points="157.95 84.91 158.76 84.91 158.76 92.29 163.89 92.29 163.89 93.06 157.95 93.06 157.95 84.91"/><path class="cls-2" d="M166.81,90.37v0c0,1.24,1,2.06,2.58,2.06s2.53-.68,2.53-1.67-.65-1.16-2-1.41l-1.74-.31c-1.3-.22-1.93-.9-1.93-2,0-1.4,1.15-2.35,3.1-2.35s3.16.94,3.21,2.5h-.81c-.11-1.14-.92-1.76-2.37-1.76s-2.29.63-2.29,1.57.66,1.15,2,1.38l1.54.28c1.48.26,2.15.89,2.15,2.1,0,1.55-1.21,2.5-3.31,2.5S166,92.19,166,90.49v-.12Z"/><polygon class="cls-2" points="177.74 85.65 174.59 85.65 174.59 84.91 181.7 84.91 181.7 85.65 178.56 85.65 178.56 93.06 177.74 93.06 177.74 85.65"/><polygon class="cls-2" points="182.91 84.91 183.8 84.91 187.07 92.36 190.35 84.91 191.24 84.91 187.58 93.06 186.55 93.06 182.91 84.91"/><path class="cls-2" d="M194.5,82.41h1l-1.34,1.68h-.66Zm-1.06,2.5h.81v8.14h-.81Z"/><path class="cls-2" d="M197.77,92.06h.91v1.32c0,.79-.2,1.2-.91,1.44V94.3a.74.74,0,0,0,.41-.76v-.49h-.41Z"/><polygon class="cls-2" points="33.35 97.56 34.42 97.56 37.28 103.7 40.18 97.56 41.17 97.56 41.17 104.33 40.5 104.33 40.53 98.14 37.67 104.33 36.89 104.33 33.95 98.14 34.01 104.33 33.35 104.33 33.35 97.56"/><polygon class="cls-2" points="43.52 97.56 44.2 97.56 44.2 103.69 48.45 103.69 48.45 104.33 43.52 104.33 43.52 97.56"/><path class="cls-2" d="M53.55,95.49h.86L53.3,96.88h-.55Zm1,6.09L53,98.13l-1.56,3.45Zm-1.93-4h.78l3.08,6.77h-.68l-.95-2.09h-3.7l-1,2.09h-.7Z"/><path class="cls-2" d="M58.82,98.17v5.51h1.79a4,4,0,0,0,2.22-.43,3.36,3.36,0,0,0,0-4.66,4.33,4.33,0,0,0-2.37-.42Zm4.56,0a4.08,4.08,0,0,1,0,5.55,4.33,4.33,0,0,1-2.77.61H58.14V97.56h2.47a4.33,4.33,0,0,1,2.77.61"/><polygon class="cls-2" points="66.48 97.56 71.68 97.56 71.68 98.19 67.15 98.19 67.15 100.56 71.33 100.56 71.33 101.2 67.15 101.2 67.15 103.69 71.68 103.69 71.68 104.33 66.48 104.33 66.48 97.56"/><path class="cls-2" d="M77.47,95.49h.72l-1.3,1.39h-.77l-1.3-1.39h.72l1,1Zm-4.3,8.17,5-5.47H73.41v-.63h5.67v.63L74,103.66h5.07v.67H73.17Z"/><polygon class="cls-2" points="80.93 97.56 86.13 97.56 86.13 98.19 81.61 98.19 81.61 100.56 85.78 100.56 85.78 101.2 81.61 101.2 81.61 103.69 86.13 103.69 86.13 104.33 80.93 104.33 80.93 97.56"/><path class="cls-2" d="M96.23,101.58l-1.55-3.45-1.55,3.45Zm-1.93-4h.78l3.08,6.77h-.68l-1-2.09h-3.7l-1,2.09h-.69Z"/><polygon class="cls-2" points="105.41 98.18 102.8 98.18 102.8 97.56 108.7 97.56 108.7 98.18 106.08 98.18 106.08 104.33 105.41 104.33 105.41 98.18"/><path class="cls-2" d="M113.88,95.49h.72l-1.3,1.39h-.77l-1.3-1.39H112l1,1Zm-3.62,2.07h5.2v.63h-4.52v2.37h4.17v.64h-4.17v2.49h4.52v.64h-5.2Z"/><polygon class="cls-2" points="117.45 97.56 118.12 97.56 118.12 103.69 122.37 103.69 122.37 104.33 117.45 104.33 117.45 97.56"/><path class="cls-2" d="M129.58,101a2.87,2.87,0,1,0-2.87,2.9,2.66,2.66,0,0,0,2.87-2.9m-2.87,3.55a3.56,3.56,0,1,1,3.56-3.55,3.27,3.27,0,0,1-3.56,3.55"/><polygon class="cls-2" points="131.36 97.56 132.09 97.56 134.81 103.74 137.53 97.56 138.27 97.56 135.23 104.33 134.38 104.33 131.36 97.56"/><path class="cls-2" d="M143.07,95.49h.86l-1.11,1.39h-.55Zm-1,5.91-2.91-3.84H140l2.39,3.3,2.41-3.3h.84l-2.91,3.84v2.93h-.68Z"/><path class="cls-2" d="M150.56,98a2.66,2.66,0,0,0-2.86,2.9,2.64,2.64,0,0,0,2.73,2.9,2.59,2.59,0,0,0,2.67-2h.72a3.24,3.24,0,0,1-3.37,2.71,3.56,3.56,0,0,1,.12-7.11,2.84,2.84,0,0,1,3.14,2.38H153A2.28,2.28,0,0,0,150.56,98"/><polygon class="cls-2" points="155.68 97.56 156.36 97.56 156.36 100.38 160.76 100.38 160.76 97.56 161.43 97.56 161.43 104.33 160.76 104.33 160.76 101.03 156.36 101.03 156.36 104.33 155.68 104.33 155.68 97.56"/><path class="cls-2" d="M169.87,101a2.87,2.87,0,1,0-2.86,2.9,2.65,2.65,0,0,0,2.86-2.9M167,104.5a3.56,3.56,0,1,1,3.56-3.55A3.27,3.27,0,0,1,167,104.5"/><polygon class="cls-2" points="171.65 97.56 172.39 97.56 175.11 103.74 177.83 97.56 178.56 97.56 175.53 104.33 174.68 104.33 171.65 97.56"/><polygon class="cls-2" points="182.39 101.4 179.47 97.56 180.34 97.56 182.72 100.86 185.14 97.56 185.98 97.56 183.06 101.4 183.06 104.33 182.39 104.33 182.39 101.4"/></svg>